<svg width="1500" height="1500" viewBox="0 0 1500 1500" fill="none" xmlns="http://www.w3.org/2000/svg">
<g clip-path="url(#clip0_60_23624)">
<rect width="1500" height="1500" fill="white"/>
<circle cx="751.48" cy="751.479" r="748.521" fill="#113561"/>
<circle cx="751.479" cy="751.479" r="692.308" stroke="#0D0D0D" stroke-width="47.3373"/>
<circle cx="750" cy="750" r="430.473" fill="#001229"/>
<circle cx="751.479" cy="751.479" r="707.84" stroke="white" stroke-width="16.2722"/>
<path d="M749.316 1080.11C641.227 1040.7 566.954 974.908 525.839 883.485C484.685 791.974 476.33 673.832 502.072 528.98C560.492 507.165 621.212 495.945 667.995 490.19C691.929 487.246 712.146 485.741 726.447 484.972C733.596 484.587 739.263 484.387 743.171 484.283C745.125 484.231 746.639 484.203 747.679 484.188C748.198 484.181 748.599 484.176 748.877 484.174C749.016 484.173 749.123 484.172 749.199 484.172L749.287 484.171L749.316 484.171C749.317 484.171 749.35 484.171 749.423 484.172C749.498 484.172 749.606 484.173 749.744 484.174C750.022 484.177 750.423 484.182 750.944 484.19C751.986 484.207 753.504 484.237 755.462 484.291C759.38 484.401 765.061 484.608 772.226 485.001C786.559 485.787 806.816 487.312 830.778 490.269C877.614 496.049 938.333 507.269 996.561 528.983C1022.3 673.834 1013.95 791.975 972.793 883.485C931.679 974.908 857.405 1040.7 749.316 1080.11Z" fill="#113561" stroke="white" stroke-width="16.2722"/>
<path d="M814.153 583.656C795.39 572.865 773.807 567.384 749.993 567.384C726.007 567.384 704.411 572.865 685.821 583.672C682.741 585.462 681.385 590.087 682.802 593.996C684.231 597.888 687.865 599.601 690.97 597.811C707.946 587.954 727.806 582.956 749.993 582.956C772.033 582.956 791.892 587.954 809.041 597.826C809.866 598.309 810.741 598.527 811.591 598.527C813.932 598.527 816.174 596.83 817.209 593.964C818.613 590.056 817.246 585.431 814.153 583.656Z" fill="#FF8C00"/>
<path d="M864.574 647.562C833.011 615.485 793.382 598.528 749.985 598.528C706.76 598.528 667.162 615.485 635.491 647.546C632.469 650.613 632.501 655.549 635.553 658.57C638.62 661.591 643.541 661.544 646.562 658.508C675.26 629.453 711.011 614.1 749.985 614.1C789.116 614.1 824.914 629.453 853.471 658.493C854.997 660.034 857.006 660.813 859.015 660.813C860.977 660.813 862.954 660.066 864.48 658.571C867.548 655.55 867.595 650.629 864.574 647.562Z" fill="#FF8C00"/>
<path d="M749.985 629.669C738.882 629.669 727.858 631.039 717.207 633.749C713.035 634.808 710.512 639.043 711.57 643.216C712.629 647.389 716.896 649.881 721.038 648.837C730.427 646.455 740.175 645.24 749.985 645.24C814.388 645.24 871.148 702.157 871.148 766.56C871.148 770.857 874.636 774.345 878.934 774.345C883.231 774.345 886.72 770.857 886.72 766.56C886.72 693.578 822.968 629.669 749.985 629.669Z" fill="#FF8C00"/>
<path d="M694.178 650.349C692.029 646.658 687.279 645.397 683.527 647.561C673.592 653.369 664.359 660.548 656.121 668.894C631.877 693.403 614.115 726.43 613.554 761.916C613.492 766.214 621.024 769.749 625.337 769.811C621.262 769.811 625.415 769.811 625.462 769.811C629.698 769.811 629.063 766.416 629.125 762.15C629.624 730.696 645.782 701.469 667.192 679.825C674.48 672.444 682.623 666.123 691.39 660.999C695.096 658.835 696.342 654.07 694.178 650.349Z" fill="#FF8C00"/>
<path d="M752.19 635.724C751.879 631.465 745.446 630.012 741.124 630.31C729.648 631.168 720.921 631.8 709.856 635.685C681.953 644.07 652.367 665.813 631.656 701.316C629.715 705.15 634.055 710.902 637.903 712.851C634.242 711.062 637.974 712.885 638.016 712.906C641.821 714.765 642.741 711.436 644.669 707.63C658.922 679.586 680.473 664.334 710.059 652.499C717.455 649.541 734.885 644.826 745.011 644.07C749.291 643.752 752.502 640.018 752.19 635.724Z" fill="#FF8C00"/>
<path d="M826.284 695.583C807.007 673.487 779.197 660.812 749.985 660.812C722.829 660.812 697.37 671.463 678.28 690.787C659.252 710.002 648.788 735.991 648.788 764.346C648.835 781.101 643.603 801.187 634.229 820.48L629.853 828.266C627.751 832.018 629.074 836.752 632.827 838.87C634.042 839.555 635.35 839.882 636.642 839.882C639.367 839.882 642.014 838.449 643.431 835.912L648.024 827.721C658.784 805.579 664.421 783.655 664.359 763.942C664.359 740.103 673.219 718.023 689.335 701.735C705.498 685.385 727.018 676.385 749.985 676.385C774.696 676.385 798.24 687.114 814.543 705.83C820.465 712.628 823.965 717.589 829.882 730.902C836.897 740.033 838.758 739.778 841.716 739.778C844.675 739.778 848.003 735.34 844.675 726.464C840.237 714.63 832.678 703.343 826.284 695.583Z" fill="#FF8C00"/>
<path d="M865.679 849.123L856.897 820.987C851.96 798.92 851.54 777.86 851.276 765.264L851.198 761.223C851.198 749.923 849.251 738.821 845.42 728.223C844.711 726.258 839.69 716.198 835.799 711.671C831.836 707.06 827.511 706.525 825.444 707.233C823.347 707.96 822.586 711.894 823.965 717.588C826.923 723.505 830.062 731.398 830.752 733.317C833.991 742.268 835.626 751.662 835.626 761.422L835.719 765.57C836 778.715 836.435 800.72 841.854 824.83L850.761 853.561C851.773 856.855 854.872 858.959 858.22 858.959C858.967 858.959 859.73 858.853 860.494 858.639C864.604 857.403 866.925 853.164 865.679 849.123Z" fill="#FF8C00"/>
<path d="M842.961 883.64L835.72 860.455C822.874 820.344 820.476 775.25 820.056 757.919C820.056 719.287 788.618 687.849 749.986 687.849C711.354 687.849 679.931 719.769 679.931 759.274C679.962 767.464 678.451 810.737 645.565 858.166C643.104 861.701 643.992 866.559 647.512 869.004C651.03 871.448 655.905 870.577 658.349 867.057C693.01 817.089 695.548 771.886 695.502 759.024C695.502 728.365 719.948 703.435 749.985 703.435C780.037 703.435 804.484 727.881 804.484 758.121C805.045 780.73 807.926 824.703 820.881 865.173L828.075 888.265C829.118 891.597 832.185 893.731 835.517 893.731C836.28 893.731 837.059 893.622 837.838 893.388C841.949 892.096 844.238 887.736 842.961 883.64Z" fill="#FF8C00"/>
<path d="M788.913 757.918C788.913 736.461 771.442 718.99 749.985 718.99C728.529 718.99 711.058 736.461 711.058 758.214C711.151 760.784 712.88 821.947 663.425 886.303C660.809 889.713 661.448 894.603 664.858 897.218C668.283 899.85 673.158 899.18 675.774 895.786C728.607 827.023 726.707 760.425 726.613 757.919C726.613 745.041 737.093 734.562 749.97 734.562C762.848 734.562 773.327 745.041 773.342 758.09C773.56 766.81 777.714 841.369 716.923 920.346C714.308 923.756 714.93 928.645 718.34 931.261C719.773 932.351 721.439 932.881 723.09 932.881C725.425 932.881 727.73 931.838 729.256 929.845C793.424 846.506 789.131 766.996 788.913 757.918Z" fill="#FF8C00"/>
<path d="M757.739 761.682C757.537 757.4 754.173 753.99 749.626 754.255C745.344 754.442 742.012 758.07 742.183 762.368C742.183 762.476 738.168 800.428 730.771 824.097C730.102 828.348 732.998 832.35 737.233 833.035C737.653 833.097 738.074 833.128 738.479 833.128C742.231 833.128 745.548 830.403 746.155 826.588C757.74 785.635 757.77 762.196 757.739 761.682Z" fill="#FF8C00"/>
<path d="M741.724 814.112C737.582 812.882 733.269 815.248 732.039 819.359C722.307 852.23 710.22 878.861 688.046 906.639C685.368 910.002 685.912 914.892 689.276 917.585C690.709 918.738 692.421 919.282 694.134 919.282C696.423 919.282 698.681 918.286 700.222 916.355C723.657 887.019 736.663 858.597 746.986 823.796C748.202 819.67 745.851 815.326 741.724 814.112Z" fill="#FF8C00"/>
<path d="M817.83 905.097L808.44 875.278C804.703 864.098 801.215 852.28 801.2 852.233C800.266 849.072 797.463 846.846 794.177 846.659C790.814 846.425 787.84 848.356 786.563 851.392C786.392 851.797 769.046 892.578 749.161 923.876C746.857 927.505 747.931 932.316 751.559 934.62C752.851 935.446 754.299 935.835 755.731 935.835C758.316 935.835 760.823 934.558 762.303 932.223C774.339 913.272 785.27 891.488 792.402 876.338C792.807 877.584 793.227 878.845 793.648 880.09L802.975 909.769C804.268 913.864 808.596 916.168 812.738 914.86C816.833 913.567 819.122 909.207 817.83 905.097Z" fill="#FF8C00"/>
<path d="M879.361 750.133C879.361 801.335 864.397 847.352 840.616 880.361C816.826 913.383 784.681 932.88 750.001 932.88C715.32 932.88 683.175 913.383 659.385 880.361C635.604 847.352 620.64 801.335 620.64 750.133C620.64 698.93 635.604 652.914 659.385 619.904C683.175 586.882 715.32 567.385 750.001 567.385C784.681 567.385 816.826 586.882 840.616 619.904C864.397 652.914 879.361 698.93 879.361 750.133Z" stroke="#FF8C00" stroke-width="16.4267"/>
<path d="M187.124 666.875C180.37 665.834 174.389 663.804 169.182 660.785C163.969 657.827 159.637 654.077 156.185 649.535C152.733 644.992 150.217 639.725 148.638 633.732C147.121 627.744 146.678 621.231 147.309 614.191C147.808 608.633 148.98 603.541 150.827 598.913C152.73 594.353 155.209 590.311 158.263 586.788C161.105 583.557 164.439 580.743 168.264 578.348C172.084 576.013 176.238 574.114 180.727 572.649C185.21 571.246 190.09 570.283 195.365 569.76C200.636 569.299 206.173 569.328 211.978 569.849L230.133 571.477C235.567 571.964 240.685 572.859 245.485 574.161C250.348 575.468 254.801 577.175 258.846 579.281C263.794 581.716 268.131 584.72 271.857 588.291C275.583 591.862 278.652 595.81 281.066 600.135C283.086 603.988 284.519 608.132 285.367 612.565C286.27 617.066 286.498 621.817 286.049 626.819C285.385 634.229 283.745 640.712 281.131 646.267C278.511 651.883 275.073 656.555 270.817 660.281C266.561 664.008 261.518 666.793 255.688 668.635C249.858 670.478 243.396 671.393 236.301 671.379L238.626 645.443C242.663 645.556 246.238 645.254 249.352 644.537C252.461 643.882 255.115 642.751 257.313 641.143C259.455 639.467 261.145 637.285 262.382 634.594C263.676 631.971 264.494 628.746 264.837 624.917C265.02 622.879 264.976 620.946 264.704 619.116C264.427 617.348 263.922 615.684 263.191 614.125C261.936 611.46 259.999 609.108 257.381 607.068C254.819 605.095 251.763 603.42 248.214 602.044C245.445 600.986 242.349 600.117 238.924 599.437C235.561 598.762 231.903 598.247 227.951 597.893L209.611 596.248C204.238 595.766 199.397 595.612 195.086 595.786C190.831 596.027 187.074 596.624 183.814 597.576C181.575 598.247 179.569 599.094 177.797 600.118C176.019 601.203 174.505 602.468 173.255 603.912C171.87 605.469 170.778 607.238 169.978 609.221C169.234 611.271 168.748 613.561 168.521 616.093C168.216 619.49 168.375 622.585 168.995 625.38C169.616 628.174 170.767 630.612 172.448 632.692C174.129 634.773 176.371 636.499 179.173 637.871C181.976 639.242 185.404 640.235 189.458 640.847L187.124 666.875Z" fill="#FF8C00"/>
<path d="M210.326 737.16L273.176 762.782L273.666 791.515L184.416 750.439L137.55 751.145L137.105 725.109L185.085 724.197L271.776 680.769L272.265 709.408L210.326 737.16Z" fill="#FF8C00"/>
<path d="M143.205 831.576L276.132 805.774L284.797 850.418C286.203 857.661 286.749 864.376 286.434 870.563C286.131 876.811 284.896 882.325 282.729 887.103C280.562 891.882 277.414 895.84 273.287 898.978C269.171 902.177 264.009 904.379 257.801 905.584C253.772 906.303 249.826 906.311 245.963 905.608C242.173 904.954 238.679 903.548 235.482 901.39C233.737 900.213 232.073 898.799 230.49 897.148C228.918 895.559 227.488 893.721 226.199 891.634L226.107 891.652C225.741 896.27 224.862 900.041 223.471 902.963C222.093 905.947 220.327 908.563 218.174 910.812C215.85 913.158 213.189 915.064 210.189 916.531C207.263 918.046 204.125 919.129 200.778 919.779C194.387 921.019 188.545 921.016 183.25 919.77C177.956 918.524 173.27 916.181 169.191 912.742C165.113 909.302 161.685 904.82 158.908 899.296C156.13 893.772 154.033 887.358 152.615 880.054L143.205 831.576ZM206.814 845.945L168.927 853.299L173.357 876.123C174.007 879.47 175.012 882.37 176.372 884.822C177.744 887.334 179.331 889.331 181.135 890.813C183.156 892.442 185.418 893.518 187.919 894.043C190.433 894.629 193.12 894.644 195.981 894.089C198.963 893.51 201.564 892.595 203.784 891.343C206.016 890.152 207.795 888.575 209.119 886.613C210.504 884.638 211.399 882.254 211.804 879.46C212.209 876.666 212.093 873.467 211.457 869.864L206.814 845.945ZM225.347 842.347L229.051 861.428C229.868 865.312 230.992 868.662 232.423 871.479C233.915 874.284 235.72 876.428 237.84 877.911C239.535 879.161 241.464 879.987 243.626 880.388C245.8 880.85 248.165 880.833 250.721 880.337C253.399 879.817 255.672 878.997 257.538 877.877C259.417 876.818 260.89 875.458 261.957 873.798C263.489 871.606 264.38 868.875 264.63 865.606C264.891 862.397 264.651 858.718 263.908 854.567L260.222 835.578L225.347 842.347Z" fill="#FF8C00"/>
<path d="M267.004 1019.46L240.103 970.783L206.649 989.273L238.095 1046.17L219.618 1056.38L175.486 976.531L293.998 911.031L337.994 990.635L319.355 1000.94L288.044 944.286L258.172 960.796L285.074 1009.47L267.004 1019.46Z" fill="#FF8C00"/>
<path d="M311.429 1097.78L298.636 1082.65L260.009 1115.33L243.132 1095.37L346.516 1007.93L375.825 1042.58C380.67 1048.3 384.368 1054.07 386.919 1059.87C389.518 1065.63 390.917 1071.27 391.116 1076.78C391.275 1082.25 390.155 1087.5 387.755 1092.54C385.394 1097.62 381.658 1102.32 376.546 1106.65C372.854 1109.77 369.136 1112.14 365.393 1113.77C361.737 1115.4 358.069 1116.39 354.388 1116.74C350.62 1117.09 346.879 1116.84 343.166 1116C339.492 1115.21 335.815 1113.94 332.135 1112.18L308.259 1170.5L307.336 1171.28L289.258 1149.91L311.429 1097.78ZM314.825 1068.96L327.318 1083.73C329.92 1086.81 332.629 1089.14 335.443 1090.74C338.344 1092.35 341.244 1093.18 344.142 1093.25C346.508 1093.36 348.875 1092.94 351.242 1092C353.648 1091.1 355.988 1089.69 358.26 1087.76C361.005 1085.44 363.059 1082.97 364.421 1080.36C365.871 1077.75 366.581 1075.04 366.553 1072.22C366.542 1069.71 365.967 1067.12 364.828 1064.42C363.689 1061.73 361.959 1059.02 359.636 1056.27L347.204 1041.57L314.825 1068.96Z" fill="#FF8C00"/>
<path d="M478.571 1173.22L445.899 1147.21L374.837 1236.5L354.318 1220.17L425.379 1130.88L393.144 1105.23L406.406 1088.56L491.833 1156.56L478.571 1173.22Z" fill="#FF8C00"/>
<path d="M538.287 1269.25L488.825 1243.82L471.35 1277.82L529.165 1307.54L519.514 1326.31L438.374 1284.6L500.281 1164.18L581.172 1205.76L571.435 1224.7L513.868 1195.11L498.264 1225.46L547.726 1250.89L538.287 1269.25Z" fill="#FF8C00"/>
<path d="M656.717 1318.01C654.441 1324.45 651.336 1329.95 647.404 1334.51C643.531 1339.08 639.042 1342.64 633.938 1345.19C628.835 1347.74 623.192 1349.24 617.01 1349.68C610.845 1350.06 604.362 1349.28 597.562 1347.36C592.193 1345.84 587.406 1343.74 583.201 1341.07C579.073 1338.35 575.561 1335.17 572.666 1331.51C570.018 1328.12 567.872 1324.32 566.227 1320.12C564.642 1315.93 563.546 1311.5 562.939 1306.82C562.392 1302.15 562.351 1297.18 562.815 1291.89C563.34 1286.63 564.396 1281.19 565.984 1275.59L570.952 1258.05C572.439 1252.8 574.267 1247.94 576.437 1243.46C578.624 1238.93 581.127 1234.87 583.946 1231.28C587.257 1226.87 591.013 1223.17 595.213 1220.17C599.413 1217.17 603.862 1214.89 608.559 1213.32C612.721 1212.05 617.059 1211.41 621.572 1211.4C626.162 1211.34 630.874 1212 635.705 1213.37C642.864 1215.4 648.93 1218.21 653.903 1221.81C658.936 1225.43 662.889 1229.67 665.761 1234.54C668.634 1239.42 670.435 1244.89 671.164 1250.96C671.894 1257.03 671.594 1263.55 670.264 1270.52L645.21 1263.42C646.069 1259.48 646.436 1255.91 646.309 1252.72C646.242 1249.54 645.623 1246.72 644.45 1244.26C643.201 1241.85 641.37 1239.78 638.956 1238.07C636.618 1236.31 633.6 1234.91 629.902 1233.86C627.933 1233.3 626.025 1232.99 624.177 1232.91C622.388 1232.86 620.66 1233.05 618.991 1233.48C616.14 1234.21 613.469 1235.68 610.979 1237.88C608.565 1240.03 606.353 1242.72 604.342 1245.95C602.789 1248.48 601.361 1251.36 600.057 1254.6C598.77 1257.78 597.585 1261.28 596.504 1265.09L591.486 1282.81C590.016 1288 588.967 1292.73 588.338 1297C587.785 1301.22 587.675 1305.03 588.006 1308.41C588.25 1310.73 588.711 1312.86 589.388 1314.79C590.125 1316.74 591.087 1318.46 592.274 1319.96C593.547 1321.61 595.083 1323.01 596.882 1324.16C598.759 1325.27 600.92 1326.18 603.365 1326.87C606.646 1327.8 609.717 1328.22 612.579 1328.12C615.44 1328.03 618.049 1327.35 620.405 1326.09C622.761 1324.82 624.873 1322.94 626.741 1320.44C628.609 1317.94 630.219 1314.76 631.573 1310.89L656.717 1318.01Z" fill="#FF8C00"/>
<path d="M773.802 1368.14L748.027 1366.13L752.602 1307.62L714.403 1304.64L709.828 1363.14L683.96 1361.12L694.517 1226.12L720.385 1228.15L716.056 1283.5L754.255 1286.49L758.584 1231.13L784.359 1233.15L773.802 1368.14Z" fill="#FF8C00"/>
<path d="M897.509 1204.35L925.595 1248.66L923.571 1195.78L954.403 1185.64L996.71 1314.26L973.917 1321.76L961.393 1283.68L942.666 1223.17L944.156 1284.56L931.876 1288.6L899.19 1240.12L919.253 1297.54L931.777 1335.62L908.984 1343.12L866.677 1214.49L897.509 1204.35Z" fill="#FF8C00"/>
<path d="M1074.66 1242.79L1039.32 1262.86L1046.32 1291.39L1022.38 1304.98L994.105 1165.33L1014.73 1153.62L1119.43 1249.88L1095.49 1263.48L1074.66 1242.79ZM1033.92 1240.36L1058.35 1226.49L1021.69 1189.99L1033.92 1240.36Z" fill="#FF8C00"/>
<path d="M1181.6 1134.03C1185.74 1139.47 1188.63 1145.09 1190.28 1150.87C1191.97 1156.62 1192.48 1162.33 1191.81 1168C1191.14 1173.66 1189.29 1179.2 1186.26 1184.61C1183.19 1189.97 1178.99 1194.96 1173.64 1199.59C1169.42 1203.24 1165.04 1206.09 1160.5 1208.13C1155.96 1210.09 1151.37 1211.28 1146.73 1211.69C1142.44 1212.04 1138.09 1211.75 1133.67 1210.81C1129.3 1209.84 1124.99 1208.32 1120.75 1206.26C1116.55 1204.15 1112.37 1201.45 1108.21 1198.17C1104.1 1194.84 1100.14 1190.97 1096.32 1186.56L1084.39 1172.78C1080.82 1168.65 1077.76 1164.46 1075.21 1160.18C1072.62 1155.87 1070.61 1151.54 1069.16 1147.22C1067.29 1142.03 1066.26 1136.86 1066.06 1131.7C1065.86 1126.54 1066.39 1121.57 1067.66 1116.78C1068.89 1112.61 1070.73 1108.63 1073.2 1104.85C1075.68 1100.99 1078.82 1097.41 1082.61 1094.13C1088.24 1089.26 1093.92 1085.73 1099.66 1083.55C1105.45 1081.33 1111.16 1080.36 1116.81 1080.64C1122.46 1080.91 1128.03 1082.41 1133.5 1085.14C1138.97 1087.86 1144.26 1091.69 1149.35 1096.63L1129.66 1113.67C1126.84 1110.79 1124.06 1108.52 1121.32 1106.87C1118.63 1105.18 1115.93 1104.15 1113.23 1103.78C1110.53 1103.5 1107.8 1103.9 1105.04 1104.97C1102.29 1105.96 1099.46 1107.71 1096.55 1110.23C1095 1111.57 1093.69 1112.99 1092.62 1114.5C1091.59 1115.96 1090.79 1117.51 1090.24 1119.14C1089.29 1121.93 1089.05 1124.96 1089.52 1128.25C1089.99 1131.45 1091.02 1134.78 1092.62 1138.23C1093.88 1140.91 1095.5 1143.69 1097.49 1146.56C1099.44 1149.38 1101.72 1152.29 1104.31 1155.29L1116.36 1169.22C1119.89 1173.29 1123.27 1176.77 1126.49 1179.64C1129.72 1182.42 1132.84 1184.6 1135.84 1186.18C1137.92 1187.25 1139.95 1188.04 1141.94 1188.53C1143.97 1188.99 1145.94 1189.13 1147.84 1188.96C1149.92 1188.8 1151.93 1188.28 1153.88 1187.41C1155.84 1186.46 1157.78 1185.15 1159.71 1183.48C1162.28 1181.25 1164.32 1178.91 1165.82 1176.47C1167.31 1174.03 1168.18 1171.48 1168.41 1168.81C1168.65 1166.15 1168.23 1163.35 1167.17 1160.42C1166.11 1157.48 1164.33 1154.39 1161.84 1151.13L1181.6 1134.03Z" fill="#FF8C00"/>
<path d="M1288.42 1060.55L1272.55 1080.96L1226.23 1044.94L1202.71 1075.19L1249.04 1111.21L1233.11 1131.69L1126.21 1048.58L1142.14 1028.1L1185.97 1062.18L1209.49 1031.93L1165.65 997.848L1181.52 977.437L1288.42 1060.55Z" fill="#FF8C00"/>
<path d="M1202.64 922.387L1323.77 982.906L1311.68 1007.12L1190.55 946.596L1202.64 922.387Z" fill="#FF8C00"/>
<path d="M1363.06 843.169L1356.25 868.303L1262.12 881.833L1346.41 904.659L1339.53 930.063L1208.83 894.67L1215.71 869.266L1309.41 855.908L1225.5 833.09L1232.36 807.776L1363.06 843.169Z" fill="#FF8C00"/>
<path d="M1310.41 704.722L1306.71 760.212L1344.85 762.758L1349.18 697.895L1370.24 699.301L1364.16 790.331L1229.06 781.313L1235.11 690.562L1256.36 691.98L1252.05 756.564L1286.11 758.837L1289.81 703.347L1310.41 704.722Z" fill="#FF8C00"/>
<path d="M1312.1 590.949C1309.7 591.264 1307.52 591.989 1305.54 593.124C1303.55 594.198 1301.77 595.839 1300.18 598.049C1298.67 600.312 1297.38 603.169 1296.34 606.621C1295.22 610.019 1294.33 614.201 1293.67 619.165C1292.62 626.87 1291.02 633.739 1288.88 639.774C1286.72 645.748 1284.16 650.744 1281.18 654.761C1278.21 658.779 1274.75 661.985 1270.82 664.378C1266.87 666.71 1262.44 668.199 1257.52 668.845C1251.87 669.589 1246.58 669.064 1241.65 667.273C1236.72 665.481 1232.35 662.679 1228.54 658.865C1224.72 655.052 1221.58 650.369 1219.1 644.817C1216.55 639.273 1214.84 633.12 1213.95 626.358C1213.03 619.351 1213.2 612.824 1214.47 606.779C1215.73 600.673 1217.9 595.292 1220.98 590.635C1224.12 585.97 1228.06 582.139 1232.79 579.14C1237.52 576.142 1242.9 574.247 1248.93 573.456L1252.25 598.72C1249.25 599.239 1246.56 600.156 1244.17 601.47C1241.77 602.724 1239.77 604.394 1238.16 606.48C1236.63 608.62 1235.56 611.168 1234.95 614.125C1234.27 617.029 1234.17 620.355 1234.66 624.105C1235.12 627.548 1235.95 630.565 1237.17 633.156C1238.31 635.694 1239.75 637.789 1241.46 639.439C1243.24 641.081 1245.24 642.257 1247.46 642.966C1249.61 643.621 1251.88 643.791 1254.28 643.476C1256.8 643.145 1259 642.232 1260.86 640.736C1262.72 639.178 1264.29 637.096 1265.58 634.488C1266.92 631.873 1268.05 628.786 1268.95 625.227C1269.85 621.607 1270.61 617.569 1271.21 613.112C1271.89 608.332 1272.88 603.731 1274.18 599.309C1275.47 594.886 1277.09 590.766 1279.03 586.947C1282.27 581.143 1286.29 576.331 1291.1 572.509C1295.92 568.687 1301.74 566.328 1308.56 565.431C1314.46 564.656 1319.87 565.164 1324.8 566.956C1329.66 568.694 1333.93 571.447 1337.61 575.215C1341.36 578.975 1344.44 583.635 1346.86 589.195C1349.21 594.763 1350.84 600.959 1351.74 607.783C1352.62 614.483 1352.51 621.251 1351.4 628.087C1350.23 634.869 1348.03 640.943 1344.79 646.308C1341.59 651.42 1337.58 655.667 1332.77 659.05C1327.96 662.372 1322.08 664.489 1315.13 665.402L1311.79 639.953C1315.83 639.297 1319.21 638.134 1321.93 636.463C1324.65 634.792 1326.77 632.668 1328.31 630.09C1329.86 627.573 1330.85 624.66 1331.29 621.35C1331.72 617.979 1331.68 614.357 1331.18 610.485C1330.72 607.042 1329.92 604.052 1328.78 601.514C1327.62 598.914 1326.22 596.785 1324.56 595.127C1322.91 593.468 1321.03 592.276 1318.93 591.551C1316.78 590.834 1314.5 590.634 1312.1 590.949Z" fill="#FF8C00"/>
<path d="M414.292 319.832L369.558 362.574L410.862 405.803L390.646 425.119L290.913 320.74L361.456 253.338L377.142 269.755L326.816 317.84L353.941 346.229L398.675 303.486L414.292 319.832Z" fill="#FF8C00"/>
<path d="M518.275 255.538C521.49 260.856 524.07 266.209 526.016 271.598C527.927 276.931 529.209 282.181 529.862 287.348C530.401 292.584 530.283 297.754 529.507 302.858C528.731 307.962 527.217 312.74 524.965 317.191C522.881 321.155 520.185 324.871 516.875 328.34C513.656 331.832 509.784 334.945 505.259 337.682C500.451 340.589 495.634 342.652 490.809 343.87C485.984 345.088 481.219 345.575 476.513 345.33C471.796 344.939 467.127 343.861 462.507 342.097C457.853 340.276 453.367 337.775 449.048 334.593C445.104 331.647 441.323 328.14 437.704 324.072C434.141 319.969 430.821 315.372 427.743 310.281L416.866 292.294C413.582 286.863 410.922 281.442 408.886 276.03C406.906 270.584 405.573 265.25 404.886 260.026C404.279 255.063 404.263 250.245 404.836 245.572C405.466 240.865 406.738 236.389 408.65 232.142C410.54 227.987 413.135 224.101 416.432 220.484C419.73 216.868 423.727 213.64 428.421 210.801C433.173 207.928 437.989 205.866 442.871 204.613C447.775 203.27 452.58 202.721 457.285 202.965C461.923 203.097 466.409 203.937 470.745 205.487C475.137 207.002 479.35 209.051 483.383 211.633C487.894 214.622 492.164 218.297 496.192 222.659C500.276 226.987 504.012 231.951 507.398 237.551L518.275 255.538ZM483.114 252.003C481.198 248.835 479.216 245.94 477.166 243.317C475.139 240.603 473.051 238.236 470.901 236.214C468.206 233.672 465.433 231.641 462.582 230.121C459.697 228.543 456.831 227.573 453.985 227.208C451.773 227 449.518 227.167 447.219 227.708C444.976 228.214 442.695 229.169 440.376 230.571C438.17 231.905 436.333 233.402 434.864 235.062C433.453 236.688 432.365 238.466 431.601 240.396C430.635 243.142 430.192 246.114 430.271 249.311C430.407 252.473 431.064 255.86 432.245 259.473C433.15 262.247 434.333 265.162 435.795 268.218C437.313 271.24 439.029 274.334 440.945 277.502L451.924 295.659C453.737 298.657 455.594 301.473 457.497 304.108C459.399 306.743 461.351 309.077 463.353 311.111C465.788 313.733 468.352 315.929 471.045 317.7C473.76 319.379 476.4 320.487 478.964 321.022C481.312 321.456 483.67 321.46 486.038 321.032C488.462 320.57 490.919 319.587 493.407 318.082C495.783 316.645 497.756 314.989 499.325 313.113C500.894 311.237 502.049 309.187 502.79 306.963C503.755 304.216 504.17 301.261 504.035 298.099C503.922 294.846 503.337 291.453 502.282 287.919C501.468 285.167 500.347 282.292 498.92 279.292C497.549 276.259 495.94 273.215 494.093 270.16L483.114 252.003Z" fill="#FF8C00"/>
<path d="M593.131 239.51L572.746 245.032L586.849 297.095L559.956 304.38L522.21 165.035L568.913 152.384C576.633 150.293 583.87 149.325 590.624 149.482C597.36 149.574 603.437 150.77 608.854 153.07C614.207 155.386 618.772 158.841 622.55 163.433C626.392 168.008 629.246 173.741 631.113 180.632C632.461 185.608 633.073 190.27 632.95 194.618C632.873 198.885 632.173 202.876 630.851 206.59C629.482 210.385 627.554 213.886 625.067 217.094C622.644 220.284 619.752 223.259 616.39 226.018L661.927 275.422L662.264 276.666L633.457 284.469L593.131 239.51ZM566.835 223.212L586.741 217.819C590.889 216.696 594.37 215.136 597.185 213.141C600.047 211.065 602.164 208.642 603.537 205.873C604.712 203.637 605.377 201.163 605.532 198.45C605.752 195.72 605.446 192.823 604.617 189.761C603.614 186.06 602.159 182.962 600.25 180.466C598.387 177.888 596.089 175.977 593.355 174.732C590.928 173.609 588.157 172.989 585.044 172.874C581.931 172.758 578.524 173.202 574.824 174.204L555.013 179.571L566.835 223.212Z" fill="#FF8C00"/>
<path d="M754.372 207.477L695.252 212.01L698.368 252.643L767.473 247.344L769.193 269.786L672.209 277.222L661.172 133.278L757.86 125.864L759.595 148.504L690.787 153.78L693.569 190.062L752.689 185.529L754.372 207.477Z" fill="#FF8C00"/>
<path d="M885.029 285.69L857.551 281.725L831.104 183.839L817.805 275.989L790.033 271.981L810.654 129.095L838.426 133.103L864.635 230.553L877.975 138.81L905.65 142.804L885.029 285.69Z" fill="#FF8C00"/>
<path d="M980.468 277.44C981.211 274.971 981.464 272.527 981.225 270.109C981.05 267.709 980.236 265.255 978.782 262.746C977.246 260.281 975.029 257.785 972.132 255.256C969.317 252.682 965.641 249.988 961.104 247.172C954.074 242.778 948.096 238.217 943.168 233.489C938.304 228.78 934.57 224.1 931.966 219.45C929.362 214.801 927.758 210.038 927.155 205.162C926.615 200.305 927.108 195.345 928.632 190.281C930.385 184.458 933.211 179.545 937.108 175.541C941.006 171.537 945.644 168.515 951.021 166.475C956.398 164.435 962.329 163.425 968.812 163.444C975.315 163.399 982.047 164.425 989.009 166.521C996.225 168.694 1002.49 171.72 1007.81 175.6C1013.2 179.499 1017.48 183.964 1020.66 188.994C1023.82 194.088 1025.82 199.591 1026.67 205.506C1027.51 211.42 1027 217.479 1025.13 223.682L999.114 215.85C999.921 212.71 1000.21 209.69 999.977 206.79C999.809 203.91 999.062 201.234 997.734 198.763C996.325 196.337 994.317 194.179 991.71 192.29C989.186 190.356 985.993 188.808 982.132 187.646C978.587 186.579 975.289 186.069 972.237 186.117C969.268 186.12 966.605 186.596 964.249 187.543C961.874 188.554 959.856 189.983 958.195 191.83C956.617 193.633 955.456 195.768 954.713 198.237C953.932 200.832 953.86 203.365 954.497 205.834C955.197 208.323 956.534 210.762 958.507 213.151C960.461 215.603 962.969 218.05 966.031 220.49C969.156 222.95 972.753 225.448 976.822 227.984C981.169 230.743 985.209 233.719 988.941 236.914C992.673 240.109 995.972 243.483 998.837 247.038C1003.06 252.728 1005.98 258.749 1007.58 265.101C1009.19 271.453 1008.94 278.142 1006.82 285.167C1005 291.244 1002.13 296.284 998.234 300.288C994.419 304.248 989.873 307.194 984.597 309.126C979.302 311.122 973.422 312.078 966.958 311.996C960.513 311.85 953.777 310.72 946.751 308.605C939.852 306.528 933.321 303.457 927.158 299.393C921.078 295.284 916.138 290.483 912.338 284.99C908.772 279.636 906.397 273.882 905.213 267.727C904.092 261.59 904.608 254.946 906.761 247.794L932.966 255.683C931.834 259.899 931.486 263.694 931.919 267.069C932.353 270.444 933.486 273.443 935.32 276.066C937.09 278.67 939.488 280.91 942.512 282.787C945.6 284.684 949.138 286.232 953.126 287.432C956.67 288.5 959.927 289.031 962.897 289.028C965.929 289.044 968.614 288.609 970.951 287.725C973.289 286.841 975.268 285.539 976.891 283.818C978.532 282.034 979.725 279.908 980.468 277.44Z" fill="#FF8C00"/>
<path d="M1099.12 229.043L1027.22 354.234L1002.2 339.865L1074.1 214.674L1099.12 229.043Z" fill="#FF8C00"/>
<path d="M1147.64 400.842C1142.38 405.879 1136.78 409.62 1130.85 412.065C1124.96 414.555 1118.98 415.786 1112.9 415.758C1106.81 415.73 1100.72 414.439 1094.63 411.885C1088.58 409.282 1082.78 405.429 1077.24 400.326C1072.86 396.298 1069.32 392.001 1066.6 387.435C1063.98 382.866 1062.17 378.146 1061.17 373.275C1060.28 368.775 1060.07 364.129 1060.52 359.338C1061.03 354.592 1062.12 349.846 1063.79 345.098C1065.51 340.395 1067.87 335.643 1070.85 330.841C1073.88 326.084 1077.5 321.419 1081.7 316.847L1094.86 302.547C1098.8 298.267 1102.88 294.519 1107.1 291.303C1111.36 288.038 1115.69 285.379 1120.1 283.325C1125.37 280.72 1130.73 279.001 1136.17 278.167C1141.6 277.333 1146.94 277.299 1152.16 278.064C1156.73 278.857 1161.17 280.334 1165.47 282.494C1169.86 284.651 1174.03 287.542 1177.97 291.168C1183.8 296.54 1188.22 302.134 1191.22 307.95C1194.27 313.812 1195.99 319.752 1196.38 325.77C1196.77 331.789 1195.86 337.862 1193.63 343.989C1191.41 350.116 1187.99 356.176 1183.37 362.168L1162.94 343.368C1165.66 340.028 1167.72 336.807 1169.14 333.708C1170.6 330.653 1171.37 327.674 1171.43 324.771C1171.41 321.872 1170.66 319.026 1169.18 316.233C1167.8 313.437 1165.61 310.651 1162.59 307.876C1160.99 306.398 1159.32 305.181 1157.6 304.223C1155.92 303.311 1154.19 302.657 1152.39 302.264C1149.32 301.596 1146.08 301.708 1142.65 302.598C1139.32 303.485 1135.92 304.983 1132.45 307.092C1129.76 308.747 1127.02 310.802 1124.22 313.258C1121.47 315.664 1118.66 318.424 1115.79 321.537L1102.5 335.983C1098.6 340.214 1095.33 344.21 1092.68 347.969C1090.12 351.724 1088.19 355.289 1086.88 358.665C1085.99 360.994 1085.41 363.241 1085.12 365.404C1084.89 367.613 1084.97 369.714 1085.38 371.709C1085.8 373.89 1086.59 375.963 1087.75 377.926C1089 379.886 1090.62 381.784 1092.62 383.619C1095.29 386.081 1098.01 387.956 1100.78 389.245C1103.55 390.533 1106.35 391.142 1109.2 391.07C1112.06 390.999 1114.97 390.223 1117.95 388.742C1120.93 387.262 1123.99 385.006 1127.14 381.975L1147.64 400.842Z" fill="#FF8C00"/>
<path d="M275.149 423.077L284.448 451.697H314.542L290.195 469.386L299.495 498.006L275.149 480.318L250.802 498.006L260.102 469.386L235.756 451.697H265.849L275.149 423.077Z" fill="white"/>
<path d="M1224.85 423.077L1234.15 451.698H1264.24L1239.9 469.386L1249.2 498.007L1224.85 480.318L1200.51 498.007L1209.81 469.386L1185.46 451.698H1215.55L1224.85 423.077Z" fill="white"/>
</g>
<defs>
<clipPath id="clip0_60_23624">
<rect width="1500" height="1500" fill="white"/>
</clipPath>
</defs>
</svg>
